<?xml version="1.0" encoding="UTF-8" standalone="no"?>
<svg width="304px" height="320px" viewBox="0 0 304 320" version="1.1" xmlns="http://www.w3.org/2000/svg" xmlns:xlink="http://www.w3.org/1999/xlink">
    <!-- Generator: Sketch 41.2 (35397) - http://www.bohemiancoding.com/sketch -->
    <title>1</title>
    <desc>Created with Sketch.</desc>
    <defs></defs>
    <g id="Page-1" stroke="none" stroke-width="1" fill="none" fill-rule="evenodd">
        <g id="1" transform="translate(-104.000000, -96.000000)" fill="#1D1D1B">
            <path d="M177.615,288 C185.053,251.479 217.303,224 256.011,224 C294.72,224 326.969,251.479 334.387,288 L366.387,288 C358.553,233.875 312.303,192 256.011,192 C199.74,192 153.47,233.875 145.636,288 L177.615,288 Z M256.011,160 C264.844,160 272.011,152.833 272.011,144 L272.011,112 C272.011,103.167 264.844,96 256.011,96 C247.179,96 240.011,103.167 240.011,112 L240.011,144 C240.011,152.833 247.179,160 256.011,160 Z M403.073,156.917 C396.824,150.667 386.699,150.667 380.448,156.917 L357.823,179.542 C351.574,185.792 351.574,195.917 357.823,202.167 C364.074,208.417 374.199,208.417 380.448,202.167 L403.073,179.542 C409.323,173.292 409.323,163.167 403.073,156.917 Z M154.177,179.542 L131.552,156.917 C125.303,150.667 115.179,150.667 108.927,156.917 C102.678,163.167 102.678,173.292 108.927,179.542 L131.552,202.167 C137.804,208.417 147.928,208.417 154.177,202.167 C160.429,195.917 160.429,185.792 154.177,179.542 Z M352.011,320 L160.011,320 C151.179,320 144.011,327.167 144.011,336 C144.011,344.833 151.179,352 160.011,352 L352.011,352 C360.844,352 368.011,344.833 368.011,336 C368.011,327.167 360.844,320 352.011,320 Z M320.011,384 L192.011,384 C183.179,384 176.011,391.167 176.011,400 C176.011,408.833 183.179,416 192.011,416 L320.011,416 C328.844,416 336.011,408.833 336.011,400 C336.011,391.167 328.844,384 320.011,384 Z" id="Shape"></path>
        </g>
    </g>
</svg>