<svg width="304" height="320" viewBox="0 0 304 320" xmlns="http://www.w3.org/2000/svg"><title>1</title><path d="M73.615 192c7.438-36.52 39.688-64 78.396-64 38.71 0 70.96 27.48 78.377 64h32c-7.834-54.125-54.084-96-110.376-96-56.27 0-102.54 41.875-110.374 96h31.98zM152.01 64c8.834 0 16-7.167 16-16V16c0-8.833-7.166-16-16-16-8.83 0-16 7.167-16 16v32c0 8.833 7.17 16 16 16zm147.063-3.083c-6.25-6.25-16.374-6.25-22.625 0l-22.625 22.625c-6.25 6.25-6.25 16.375 0 22.625s16.376 6.25 22.625 0l22.625-22.625c6.25-6.25 6.25-16.375 0-22.625zM50.177 83.542L27.552 60.917c-6.25-6.25-16.373-6.25-22.625 0-6.25 6.25-6.25 16.375 0 22.625l22.625 22.625c6.252 6.25 16.376 6.25 22.625 0 6.252-6.25 6.252-16.375 0-22.625zM248.01 224h-192c-8.83 0-16 7.167-16 16s7.17 16 16 16h192c8.834 0 16-7.167 16-16s-7.166-16-16-16zm-32 64h-128c-8.83 0-16 7.167-16 16s7.17 16 16 16h128c8.834 0 16-7.167 16-16s-7.166-16-16-16z" fill="#D1D7BF" fill-rule="evenodd"/></svg>