<svg xmlns="http://www.w3.org/2000/svg" width="512" height="512" viewBox="0 0 512 512"><g fill="none" stroke="#A9CCDB" stroke-miterlimit="10"><path d="M0 0h512v512H0zM0 480h512M0 448h512M0 416h512M0 384h512M0 352h512M0 320h512M0 288h512M0 256h512M0 224h512M0 192h512M0 160h512M0 128h512M0 96h512M0 64h512M0 32h512M480 0v512M448 0v512M416 0v512M384 0v512M352 0v512M320 0v512M288 0v512M256 0v512M224 0v512M192 0v512M160 0v512M128 0v512M96 0v512M64 0v512M32 0v512"/></g><path fill="#1D1D1B" d="M64 319h384c8.833 0 16-7.166 16-16s-7.167-16-16-16H64c-8.833 0-16 7.168-16 16s7.167 16 16 16zm384 32H64c-8.833 0-16 7.168-16 16s7.167 16 16 16h384c8.833 0 16-7.166 16-16s-7.167-16-16-16zm0 64H64c-8.833 0-16 7.168-16 16s7.167 16 16 16h384c8.833 0 16-7.166 16-16s-7.167-16-16-16zM205.042 255c-.333-.333-.75-.542-1.083-.875-37.44-37.438-37.44-98.334 0-135.792a92.49 92.49 0 0 1 8.145-7.208c-2.25 35.958 10.73 71.375 37.104 97.73 26.373 26.395 61.79 39.332 97.748 37.082-2.667 3.396-5.874 6.125-8.896 9.062h41.52c5.043-8.043 9.25-16.75 12.584-26.064 2.02-5.854.542-12.333-3.833-16.667-4.29-4.355-10.792-5.855-16.624-3.792-35.377 12.5-73.647 3.98-99.876-22.25-26.25-26.25-34.792-64.52-22.25-99.896 2.082-5.812.582-12.27-3.792-16.646a15.947 15.947 0 0 0-16.625-3.77c-18.52 6.54-34.625 16.603-47.833 29.79-43.21 43.21-48.855 109.773-17.272 159.294h40.98z"/></svg>