<svg xmlns="http://www.w3.org/2000/svg" width="512" height="512" viewBox="0 0 512 512"><g fill="none" stroke="#A9CCDB" stroke-miterlimit="10"><path d="M0 0h512v512H0zM0 480h512M0 448h512M0 416h512M0 384h512M0 352h512M0 320h512M0 288h512M0 256h512M0 224h512M0 192h512M0 160h512M0 128h512M0 96h512M0 64h512M0 32h512M480 0v512M448 0v512M416 0v512M384 0v512M352 0v512M320 0v512M288 0v512M256 0v512M224 0v512M192 0v512M160 0v512M128 0v512M96 0v512M64 0v512M32 0v512"/></g><path fill-rule="evenodd" clip-rule="evenodd" fill="#1D1D1B" d="M33.604 256A80.902 80.902 0 0 1 32 240c0-44.188 35.812-80 80-80 10.812 0 21.062 2.208 30.438 6.083C163.668 124.667 206.29 96 256 96s92.334 28.667 113.54 70.083C378.94 162.208 389.21 160 400 160c44.188 0 80 35.812 80 80a79.36 79.36 0 0 1-1.625 16h32c.792-5.27 1.625-10.52 1.625-16 0-61.75-50.25-112-112-112-5.312 0-10.562.375-15.792 1.125C354.334 88.417 307.188 64 256 64s-98.312 24.417-128.208 65.125c-5.23-.75-10.48-1.125-15.792-1.125C50.25 128 0 178.25 0 240c0 5.48.854 10.73 1.625 16h31.98zM496 288H16c-8.833 0-16 7.167-16 16s7.167 16 16 16h480c8.833 0 16-7.167 16-16s-7.167-16-16-16zm0 64H16c-8.833 0-16 7.167-16 16s7.167 16 16 16h480c8.833 0 16-7.167 16-16s-7.167-16-16-16zm0 64H16c-8.833 0-16 7.167-16 16s7.167 16 16 16h480c8.833 0 16-7.167 16-16s-7.167-16-16-16z"/></svg>