<svg xmlns="http://www.w3.org/2000/svg" width="512" height="512" viewBox="0 0 512 512"><g fill="none" stroke="#A9CCDB" stroke-miterlimit="10"><path d="M0 0h512v512H0zM0 480h512M0 448h512M0 416h512M0 384h512M0 352h512M0 320h512M0 288h512M0 256h512M0 224h512M0 192h512M0 160h512M0 128h512M0 96h512M0 64h512M0 32h512M480 0v512M448 0v512M416 0v512M384 0v512M352 0v512M320 0v512M288 0v512M256 0v512M224 0v512M192 0v512M160 0v512M128 0v512M96 0v512M64 0v512M32 0v512"/></g><path fill="#1D1D1B" d="M400 64c-5.312 0-10.562.375-15.792 1.125C354.334 24.417 307.188 0 256 0s-98.312 24.417-128.208 65.125C122.562 64.375 117.312 64 112 64 50.25 64 0 114.25 0 176s50.25 112 112 112c13.688 0 27.084-2.5 39.71-7.333 12.29 10.708 26.25 18.958 40.915 25.416l24.916-24.874c-23.457-7.627-44.165-21.272-59.603-39.877C144.937 250.5 129.125 256 112 256c-44.188 0-80-35.812-80-80s35.812-80 80-80c10.812 0 21.062 2.208 30.438 6.083C163.668 60.667 206.29 32 256 32s92.334 28.667 113.54 70.083C378.94 98.208 389.21 96 400 96c44.188 0 80 35.812 80 80s-35.812 80-80 80c-17.125 0-32.916-5.5-45.938-14.667-10.375 12.52-23.312 22.667-37.625 30.584L303 312.25c20.875-6.562 40.5-16.938 57.29-31.583A110.825 110.825 0 0 0 400 288c61.75 0 112-50.25 112-112S461.75 64 400 64zM192 352l32 32-32 96 96-96-32-32 32-96-96 96z"/></svg>