<svg xmlns="http://www.w3.org/2000/svg" width="512" height="512" viewBox="0 0 512 512"><g fill="none" stroke="#A9CCDB" stroke-miterlimit="10"><path d="M0 0h512v512H0zM0 480h512M0 448h512M0 416h512M0 384h512M0 352h512M0 320h512M0 288h512M0 256h512M0 224h512M0 192h512M0 160h512M0 128h512M0 96h512M0 64h512M0 32h512M480 0v512M448 0v512M416 0v512M384 0v512M352 0v512M320 0v512M288 0v512M256 0v512M224 0v512M192 0v512M160 0v512M128 0v512M96 0v512M64 0v512M32 0v512"/></g><path fill-rule="evenodd" clip-rule="evenodd" fill="#1D1D1B" d="M400 96c-5.312 0-10.562.375-15.792 1.125C354.334 56.417 307.188 32 256 32s-98.312 24.417-128.208 65.125C122.562 96.375 117.312 96 112 96 50.25 96 0 146.25 0 208s50.25 112 112 112c13.688 0 27.084-2.5 39.71-7.333C180.665 337.917 217.5 352 256 352c38.542 0 75.333-14.083 104.29-39.333A110.825 110.825 0 0 0 400 320c61.75 0 112-50.25 112-112S461.75 96 400 96zm0 192c-17.125 0-32.916-5.5-45.938-14.667C330.584 301.625 295.624 320 256 320c-39.625 0-74.584-18.375-98.062-46.667C144.938 282.5 129.125 288 112 288c-44.188 0-80-35.812-80-80s35.812-80 80-80c10.812 0 21.062 2.208 30.438 6.083C163.668 92.667 206.29 64 256 64s92.334 28.667 113.54 70.083C378.94 130.208 389.21 128 400 128c44.188 0 80 35.812 80 80s-35.812 80-80 80zM224 448c0 17.688 14.312 32 32 32s32-14.312 32-32-32-64-32-64-32 46.312-32 64z"/></svg>