<svg xmlns="http://www.w3.org/2000/svg" width="512" height="512" viewBox="0 0 512 512"><g fill="none" stroke="#A9CCDB" stroke-miterlimit="10"><path d="M0 0h512v512H0zM0 480h512M0 448h512M0 416h512M0 384h512M0 352h512M0 320h512M0 288h512M0 256h512M0 224h512M0 192h512M0 160h512M0 128h512M0 96h512M0 64h512M0 32h512M480 0v512M448 0v512M416 0v512M384 0v512M352 0v512M320 0v512M288 0v512M256 0v512M224 0v512M192 0v512M160 0v512M128 0v512M96 0v512M64 0v512M32 0v512"/></g><path fill-rule="evenodd" clip-rule="evenodd" fill="#1D1D1B" d="M417.042 166.083c-23.98-24.542-57.125-38.77-91.73-38.77-34.562 0-67.688 14.228-91.665 38.77-52.813 2.46-95.02 46.188-95.02 99.584 0 54.958 44.708 99.666 99.687 99.666 5.834 0 11.604-.5 17.27-1.5 20.73 13.542 44.918 20.855 69.73 20.855 24.854 0 49.063-7.313 69.772-20.854 5.707 1 11.458 1.5 17.29 1.5 54.938 0 99.626-44.71 99.626-99.667-.002-53.396-42.19-97.125-94.96-99.584zm-4.667 167.25c-8.312 0-16.375-1.5-24-4.417-17.5 15.25-39.75 23.772-63.063 23.772-23.25 0-45.5-8.522-63-23.772a67.105 67.105 0 0 1-24 4.417c-37.31 0-67.687-30.375-67.687-67.666 0-37.313 30.375-67.688 67.688-67.688 3.188 0 6.375.228 9.52.687 18.105-24.583 46.542-39.354 77.48-39.354 30.937 0 59.437 14.77 77.5 39.354a65.854 65.854 0 0 1 9.562-.688c37.312 0 67.625 30.374 67.625 67.687 0 37.29-30.312 67.666-67.625 67.666zM144 352H16c-8.833 0-16 7.167-16 16s7.167 16 16 16h128c8.833 0 16-7.167 16-16s-7.167-16-16-16zM16 320h64c8.833 0 16-7.167 16-16s-7.167-16-16-16H16c-8.833 0-16 7.167-16 16s7.167 16 16 16zm32-64h64c8.833 0 16-7.167 16-16s-7.167-16-16-16H48c-8.833 0-16 7.167-16 16s7.167 16 16 16z"/></svg>