<svg xmlns="http://www.w3.org/2000/svg" width="512" height="512" viewBox="0 0 512 512"><g fill="none" stroke="#A9CCDB" stroke-miterlimit="10"><path d="M0 0h512v512H0zM0 480h512M0 448h512M0 416h512M0 384h512M0 352h512M0 320h512M0 288h512M0 256h512M0 224h512M0 192h512M0 160h512M0 128h512M0 96h512M0 64h512M0 32h512M480 0v512M448 0v512M416 0v512M384 0v512M352 0v512M320 0v512M288 0v512M256 0v512M224 0v512M192 0v512M160 0v512M128 0v512M96 0v512M64 0v512M32 0v512"/></g><path fill-rule="evenodd" clip-rule="evenodd" fill="#1D1D1B" d="M417.042 70.792C393.062 46.23 359.917 32 325.312 32c-34.562 0-67.688 14.23-91.665 38.792-52.813 2.438-95.02 46.167-95.02 99.542 0 54.978 44.708 99.708 99.687 99.708 5.834 0 11.604-.5 17.27-1.5 20.73 13.52 44.918 20.833 69.73 20.833 24.854 0 49.063-7.312 69.772-20.833 5.707 1 11.458 1.5 17.29 1.5 54.94 0 99.626-44.73 99.626-99.708-.002-53.376-42.19-97.126-94.96-99.542zm-4.667 167.25c-8.312 0-16.375-1.5-24-4.458-17.5 15.25-39.75 23.792-63.063 23.792-23.25 0-45.5-8.542-63-23.792-7.624 2.96-15.75 4.458-24 4.458-37.31 0-67.687-30.375-67.687-67.708 0-37.292 30.375-67.667 67.688-67.667 3.188 0 6.375.25 9.52.688C265.94 78.77 294.376 64 325.314 64c30.937 0 59.437 14.77 77.5 39.354a68.793 68.793 0 0 1 9.562-.688c37.312 0 67.625 30.375 67.625 67.667 0 37.334-30.312 67.71-67.625 67.71zM144 256.688H16c-8.833 0-16 7.146-16 16 0 8.853 7.167 16 16 16h128c8.833 0 16-7.147 16-16 0-8.854-7.167-16-16-16zm-128-32h64c8.833 0 16-7.146 16-16s-7.167-16-16-16H16c-8.833 0-16 7.146-16 16s7.167 16 16 16zm32-64h64c8.833 0 16-7.146 16-16s-7.167-16-16-16H48c-8.833 0-16 7.146-16 16s7.167 16 16 16zM224 384c0 17.688 14.312 32 32 32s32-14.312 32-32-32-64-32-64-32 46.312-32 64zm128 64c0 17.688 14.312 32 32 32s32-14.312 32-32-32-64-32-64-32 46.312-32 64z"/></svg>