<svg xmlns="http://www.w3.org/2000/svg" width="512" height="512" viewBox="0 0 512 512"><g fill="none" stroke="#A9CCDB" stroke-miterlimit="10"><path d="M0 0h512v512H0zM0 480h512M0 448h512M0 416h512M0 384h512M0 352h512M0 320h512M0 288h512M0 256h512M0 224h512M0 192h512M0 160h512M0 128h512M0 96h512M0 64h512M0 32h512M480 0v512M448 0v512M416 0v512M384 0v512M352 0v512M320 0v512M288 0v512M256 0v512M224 0v512M192 0v512M160 0v512M128 0v512M96 0v512M64 0v512M32 0v512"/></g><path fill="#1D1D1B" d="M326.042 347.688l-18-10.375c.542-3.125.958-6.312.958-9.625 0-3.312-.416-6.5-1-9.625l18.042-10.396c8.417-4.917 11.29-15.73 6.458-24.104-4.876-8.48-15.667-11.375-24.125-6.5l-18.188 10.5c-4.877-4.146-10.375-7.396-16.5-9.604v-20.897c0-9.77-7.938-17.688-17.688-17.688s-17.667 7.917-17.667 17.688v20.875c-6.126 2.188-11.646 5.48-16.52 9.625l-18.147-10.5c-8.48-4.875-19.292-2-24.167 6.48-4.876 8.416-1.94 19.25 6.5 24.125l17.958 10.375c-.584 3.146-.96 6.334-.96 9.646s.376 6.5.96 9.622L186 347.688c-8.46 4.875-11.375 15.75-6.5 24.188s15.688 11.312 24.125 6.438l18.167-10.438c4.874 4.125 10.396 7.375 16.542 9.562v20.938c0 9.75 7.916 17.624 17.666 17.624s17.688-7.875 17.688-17.624v-20.938a51.698 51.698 0 0 0 16.52-9.625l18.168 10.5c8.458 4.875 19.25 2 24.125-6.438 4.875-8.437 2-19.25-6.458-24.187zM256 345.375c-9.75 0-17.688-7.938-17.688-17.688S246.25 310.04 256 310.04s17.667 7.897 17.667 17.647-7.917 17.688-17.667 17.688zM400 64c-5.312 0-10.562.375-15.792 1.125C354.334 24.417 307.188 0 256 0s-98.312 24.417-128.208 65.125C122.562 64.375 117.312 64 112 64 50.25 64 0 114.25 0 176s50.25 112 112 112c11.812 0 23.334-2.208 34.438-5.834 1.062-5.082 2.73-10.04 5.375-14.645 3.938-6.853 9.562-12.31 16-16.5-3.312-3.23-6.938-6.105-9.875-9.69-13 9.17-28.813 14.67-45.938 14.67-44.188 0-80-35.812-80-80s35.812-80 80-80c10.812 0 21.062 2.208 30.438 6.083C163.668 60.667 206.29 32 256 32s92.334 28.667 113.54 70.083C378.94 98.208 389.21 96 400 96c44.188 0 80 35.812 80 80s-35.812 80-80 80c-17.125 0-32.916-5.5-45.938-14.667-2.938 3.583-6.604 6.46-9.896 9.688 6.46 4.208 12.125 9.69 16.042 16.563 2.708 4.646 4.354 9.584 5.416 14.583C376.688 285.792 388.188 288 400 288c61.75 0 112-50.25 112-112S461.75 64 400 64z"/></svg>