<svg xmlns="http://www.w3.org/2000/svg" width="512" height="512" viewBox="0 0 512 512"><g fill="none" stroke="#A9CCDB" stroke-miterlimit="10"><path d="M0 0h512v512H0zM0 480h512M0 448h512M0 416h512M0 384h512M0 352h512M0 320h512M0 288h512M0 256h512M0 224h512M0 192h512M0 160h512M0 128h512M0 96h512M0 64h512M0 32h512M480 0v512M448 0v512M416 0v512M384 0v512M352 0v512M320 0v512M288 0v512M256 0v512M224 0v512M192 0v512M160 0v512M128 0v512M96 0v512M64 0v512M32 0v512"/></g><path fill="#1D1D1B" d="M512 240c0-49.166-40-89.145-89.167-89.145-2.396 0-4.77.104-7.146.29-23.125-28.853-57.98-45.977-95.688-45.977-37.69 0-72.563 17.124-95.69 45.98a91.045 91.045 0 0 0-7.187-.292C168 150.856 128 190.834 128 240c0 5.147.688 10.105 1.5 15.043-.542.708-1.188 1.354-1.708 2.083A110.94 110.94 0 0 0 112 256C50.25 256 0 306.25 0 368s50.25 112 112 112c13.688 0 27.084-2.5 39.71-7.333C180.665 497.917 217.5 512 256 512c38.542 0 75.333-14.083 104.29-39.333A110.825 110.825 0 0 0 400 480c61.75 0 112-50.25 112-112 0-25.688-9.042-49.083-23.666-68C502.916 284.106 512 263.17 512 240zM400 448c-17.125 0-32.916-5.5-45.938-14.666C330.582 461.624 295.624 480 256 480c-39.625 0-74.584-18.375-98.062-46.666C144.938 442.5 129.126 448 112 448c-44.188 0-80-35.812-80-80s35.812-80 80-80c10.812 0 21.062 2.19 30.438 6.063.562-1.062 1.25-2 1.812-3.02A129.694 129.694 0 0 1 164.916 263C188 239.084 220.083 224 256 224c49.71 0 92.334 28.666 113.54 70.062 5.647-2.312 11.67-3.813 17.876-4.812L400 288c12.334 0 23.875 3.042 34.312 8 11.312 5.416 21.02 13.374 28.646 23.188C473.458 332.708 480 349.542 480 368c0 44.188-35.812 80-80 80zm65.562-170.375C447.082 264.167 424.562 256 400 256c-5.312 0-10.562.376-15.792 1.126C354.334 216.418 307.188 192 256 192c-34.125 0-66.312 11.043-92.938 30.335 7.48-22.854 28.73-39.48 54.062-39.48a56.6 56.6 0 0 1 21.75 4.333c15.188-29.562 45.625-50.02 81.125-50.02s65.957 20.457 81.083 50.02c6.73-2.77 14.083-4.332 21.75-4.332 31.583 0 57.166 25.583 57.166 57.146 0 14.478-5.562 27.54-14.438 37.623z"/></svg>