<svg xmlns="http://www.w3.org/2000/svg" width="512" height="512" viewBox="0 0 512 512"><g fill="none" stroke="#A9CCDB" stroke-miterlimit="10"><path d="M0 0h512v512H0zM0 480h512M0 448h512M0 416h512M0 384h512M0 352h512M0 320h512M0 288h512M0 256h512M0 224h512M0 192h512M0 160h512M0 128h512M0 96h512M0 64h512M0 32h512M480 0v512M448 0v512M416 0v512M384 0v512M352 0v512M320 0v512M288 0v512M256 0v512M224 0v512M192 0v512M160 0v512M128 0v512M96 0v512M64 0v512M32 0v512"/></g><path fill="#1D1D1B" d="M512 134.833c0-49.146-40-89.124-89.167-89.124-2.396 0-4.77.082-7.146.27C392.562 17.145 357.71 0 320 0c-37.688 0-72.562 17.146-95.688 45.98a91.556 91.556 0 0 0-7.188-.27C168 45.71 128 85.687 128 134.832c0 5.146.688 10.125 1.5 15.042-.542.708-1.188 1.354-1.708 2.083A110.94 110.94 0 0 0 112 150.833c-61.75 0-112 50.25-112 112s50.25 112 112 112c13.688 0 27.084-2.5 39.71-7.333 18.353 16 40.103 26.938 63.206 33.208L192 416l32 32-32 64 96-64-32-32 4.812-9.583c36.75-1.125 71.75-14.73 99.48-38.917A110.804 110.804 0 0 0 400 374.833c61.75 0 112-50.25 112-112 0-25.666-9.042-49.083-23.666-68 14.582-15.875 23.666-36.812 23.666-60zm-112 208c-17.125 0-32.916-5.5-45.938-14.646-19 22.896-45.75 38.73-76.23 44.125l-23.77 2.312C215.25 374 181 356 157.938 328.188c-13 9.146-28.812 14.646-45.938 14.646-44.188 0-80-35.79-80-80 0-44.167 35.812-80 80-80 10.812 0 21.062 2.21 30.438 6.083.562-1.083 1.25-2 1.812-3.042a130.207 130.207 0 0 1 20.666-28.042c23.084-23.896 55.167-39 91.084-39 49.71 0 92.334 28.667 113.54 70.083 5.647-2.333 11.67-3.833 17.876-4.833l12.584-1.25c12.334 0 23.875 3.042 34.312 8 11.312 5.417 21.02 13.375 28.646 23.208 10.5 13.522 17.042 30.335 17.042 48.793 0 44.21-35.812 80-80 80zm65.562-170.375c-18.48-13.438-41-21.625-65.562-21.625-5.312 0-10.562.375-15.792 1.125C354.334 111.27 307.188 86.833 256 86.833c-34.125 0-66.312 11.062-92.938 30.354 7.48-22.853 28.73-39.478 54.062-39.478a56.58 56.58 0 0 1 21.75 4.332C254.062 52.458 284.5 32 320 32s65.958 20.458 81.084 50.042c6.73-2.77 14.083-4.333 21.75-4.333 31.583 0 57.166 25.582 57.166 57.123 0 14.5-5.562 27.563-14.438 37.625z"/></svg>