<svg xmlns="http://www.w3.org/2000/svg" width="512" height="512" viewBox="0 0 512 512"><g fill="none" stroke="#A9CCDB" stroke-miterlimit="10"><path d="M0 0h512v512H0zM0 480h512M0 448h512M0 416h512M0 384h512M0 352h512M0 320h512M0 288h512M0 256h512M0 224h512M0 192h512M0 160h512M0 128h512M0 96h512M0 64h512M0 32h512M480 0v512M448 0v512M416 0v512M384 0v512M352 0v512M320 0v512M288 0v512M256 0v512M224 0v512M192 0v512M160 0v512M128 0v512M96 0v512M64 0v512M32 0v512"/></g><path fill-rule="evenodd" clip-rule="evenodd" fill="#1D1D1B" d="M256 144c-61.75 0-112 50.25-112 112s50.25 112 112 112 112-50.25 112-112-50.25-112-112-112zm0-32c8.833 0 16-7.146 16-16V64c0-8.833-7.167-16-16-16-8.854 0-16 7.167-16 16v32c0 8.854 7.146 16 16 16zm0 288c-8.854 0-16 7.167-16 16v32c0 8.854 7.146 16 16 16 8.833 0 16-7.146 16-16v-32c0-8.833-7.167-16-16-16zm124.417-245.833l22.625-22.625c6.25-6.25 6.25-16.375 0-22.625s-16.375-6.25-22.625 0l-22.625 22.625c-6.25 6.25-6.25 16.375 0 22.625s16.374 6.25 22.625 0zM131.54 357.854L108.92 380.48c-6.252 6.25-6.252 16.375 0 22.624 6.25 6.25 16.373 6.25 22.623 0l22.626-22.625c6.25-6.292 6.25-16.376 0-22.626s-16.374-6.292-22.625 0zM112 256c0-8.833-7.167-16-16-16H64c-8.854 0-16 7.167-16 16 0 8.854 7.146 16 16 16h32c8.833 0 16-7.146 16-16zm336-16h-32c-8.854 0-16 7.167-16 16 0 8.854 7.146 16 16 16h32c8.833 0 16-7.146 16-16 0-8.833-7.167-16-16-16zm-316.48-85.833c6.25 6.25 16.376 6.25 22.626 0s6.25-16.375 0-22.625l-22.625-22.625c-6.25-6.25-16.375-6.25-22.624 0-6.25 6.25-6.25 16.375 0 22.625l22.625 22.625zm248.94 203.645c-6.294-6.25-16.377-6.25-22.626 0-6.25 6.25-6.293 16.375 0 22.625l22.625 22.625c6.248 6.25 16.373 6.25 22.624 0 6.25-6.25 6.25-16.376 0-22.625l-22.625-22.625z"/></svg>