<svg xmlns="http://www.w3.org/2000/svg" width="512" height="512" viewBox="0 0 512 512"><g fill="none" stroke="#A9CCDB" stroke-miterlimit="10"><path d="M0 0h512v512H0zM0 480h512M0 448h512M0 416h512M0 384h512M0 352h512M0 320h512M0 288h512M0 256h512M0 224h512M0 192h512M0 160h512M0 128h512M0 96h512M0 64h512M0 32h512M480 0v512M448 0v512M416 0v512M384 0v512M352 0v512M320 0v512M288 0v512M256 0v512M224 0v512M192 0v512M160 0v512M128 0v512M96 0v512M64 0v512M32 0v512"/></g><path fill-rule="evenodd" clip-rule="evenodd" fill="#1D1D1B" d="M248.082 263.932c-31.52-31.542-39.98-77.105-26.02-116.542-15.25 5.395-29.668 13.833-41.854 26.02-43.75 43.75-43.75 114.667 0 158.395 43.73 43.73 114.625 43.752 158.374 0 12.23-12.186 20.646-26.604 26.02-41.854-39.414 13.96-84.998 5.5-116.52-26.018z"/></svg>