<svg xmlns="http://www.w3.org/2000/svg" width="512" height="512" viewBox="0 0 512 512"><g fill="none" stroke="#A9CCDB" stroke-miterlimit="10"><path d="M0 0h512v512H0zM0 480h512M0 448h512M0 416h512M0 384h512M0 352h512M0 320h512M0 288h512M0 256h512M0 224h512M0 192h512M0 160h512M0 128h512M0 96h512M0 64h512M0 32h512M480 0v512M448 0v512M416 0v512M384 0v512M352 0v512M320 0v512M288 0v512M256 0v512M224 0v512M192 0v512M160 0v512M128 0v512M96 0v512M64 0v512M32 0v512"/></g><path fill="#1D1D1B" d="M208 64c8.833 0 16-7.167 16-16V16c0-8.833-7.167-16-16-16s-16 7.167-16 16v32c0 8.833 7.167 16 16 16zm124.438 42.167l22.625-22.625c6.25-6.25 6.25-16.375 0-22.625s-16.375-6.25-22.625 0l-22.625 22.625c-6.25 6.25-6.25 16.375 0 22.625s16.375 6.25 22.625 0zM16 224h32c8.833 0 16-7.167 16-16s-7.167-16-16-16H16c-8.833 0-16 7.167-16 16s7.167 16 16 16zm336-16c0 8.833 7.167 16 16 16h32c8.833 0 16-7.167 16-16s-7.167-16-16-16h-32c-8.833 0-16 7.167-16 16zM83.54 106.167c6.252 6.25 16.377 6.25 22.626 0 6.25-6.25 6.25-16.375 0-22.625L83.54 60.917c-6.25-6.25-16.373-6.25-22.624 0-6.25 6.25-6.25 16.375 0 22.625l22.625 22.625zM400 256c-5.312 0-10.562.375-15.792 1.125-16.77-22.875-39.124-40.333-64.458-51.5C318.46 145 268.938 96 208 96c-61.75 0-112 50.25-112 112 0 17.438 4.334 33.75 11.5 48.438C47.875 258.875 0 307.812 0 368c0 61.75 50.25 112 112 112 13.688 0 27.084-2.5 39.71-7.333C180.665 497.917 217.5 512 256 512c38.542 0 75.333-14.083 104.29-39.333A110.825 110.825 0 0 0 400 480c61.75 0 112-50.25 112-112s-50.25-112-112-112zm-144-64c-45.938 0-88.5 19.812-118.375 53.25C131.688 234.083 128 221.542 128 208c0-44.188 35.812-80 80-80 39.812 0 72.562 29.167 78.708 67.25-10.02-2-20.25-3.25-30.708-3.25z"/></svg>