<svg xmlns="http://www.w3.org/2000/svg" width="512" height="512" viewBox="0 0 512 512"><g fill="none" stroke="#A9CCDB" stroke-miterlimit="10"><path d="M0 0h512v512H0zM0 480h512M0 448h512M0 416h512M0 384h512M0 352h512M0 320h512M0 288h512M0 256h512M0 224h512M0 192h512M0 160h512M0 128h512M0 96h512M0 64h512M0 32h512M480 0v512M448 0v512M416 0v512M384 0v512M352 0v512M320 0v512M288 0v512M256 0v512M224 0v512M192 0v512M160 0v512M128 0v512M96 0v512M64 0v512M32 0v512"/></g><path fill="#1D1D1B" d="M435.062 262.166c4.875-3.625 9.812-7.187 14.23-11.604 13.207-13.23 23.27-29.333 29.79-47.854a15.87 15.87 0 0 0-3.77-16.625 15.92 15.92 0 0 0-16.624-3.792c-35.396 12.5-73.688 4-99.896-22.25-26.25-26.25-34.79-64.52-22.25-99.895a16.008 16.008 0 0 0-3.79-16.646 16.037 16.037 0 0 0-16.626-3.792C297.584 46.29 281.5 56.333 268.292 69.54c-33.54 33.5-43.98 81-32.48 123.793-43.25 5.52-82.124 28.5-108.02 63.792A110.94 110.94 0 0 0 112 256C50.25 256 0 306.25 0 368s50.25 112 112 112c13.688 0 27.084-2.5 39.71-7.334C180.664 497.916 217.5 512 256 512c38.54 0 75.332-14.084 104.29-39.334A110.826 110.826 0 0 0 400 480c61.75 0 112-50.25 112-112 0-49.438-32.417-91.02-76.938-105.834zm-144.146-170c2.542-2.582 5.27-4.978 8.146-7.228-2.25 35.98 10.73 71.375 37.104 97.73 26.376 26.374 61.77 39.332 97.75 37.103-13.79 17.585-32.79 28.522-53.125 33.19-27.374-34.75-67.603-56.625-111.957-60.188-12.27-33.96-5.083-73.44 22.083-100.605z"/></svg>