<svg xmlns="http://www.w3.org/2000/svg" width="512" height="512" viewBox="0 0 512 512"><g fill="none" stroke="#A9CCDB" stroke-miterlimit="10"><path d="M0 0h512v512H0zM0 480h512M0 448h512M0 416h512M0 384h512M0 352h512M0 320h512M0 288h512M0 256h512M0 224h512M0 192h512M0 160h512M0 128h512M0 96h512M0 64h512M0 32h512M480 0v512M448 0v512M416 0v512M384 0v512M352 0v512M320 0v512M288 0v512M256 0v512M224 0v512M192 0v512M160 0v512M128 0v512M96 0v512M64 0v512M32 0v512"/></g><path fill="#1D1D1B" d="M400 64c-5.312 0-10.562.375-15.792 1.125C354.334 24.417 307.188 0 256 0s-98.312 24.417-128.208 65.125C122.562 64.375 117.312 64 112 64 50.25 64 0 114.25 0 176s50.25 112 112 112c13.688 0 27.084-2.5 39.71-7.333 21.54 18.77 47.415 31.29 75.103 36.52L192 352l32 32-32 96 96-96-32-32 11-33c34.458-2.437 67.125-15.542 93.29-38.333A110.825 110.825 0 0 0 400 288c61.75 0 112-50.25 112-112S461.75 64 400 64z"/></svg>