<svg xmlns="http://www.w3.org/2000/svg" width="512" height="512" viewBox="0 0 512 512"><g fill="none" stroke="#A9CCDB" stroke-miterlimit="10"><path d="M0 0h512v512H0zM0 480h512M0 448h512M0 416h512M0 384h512M0 352h512M0 320h512M0 288h512M0 256h512M0 224h512M0 192h512M0 160h512M0 128h512M0 96h512M0 64h512M0 32h512M480 0v512M448 0v512M416 0v512M384 0v512M352 0v512M320 0v512M288 0v512M256 0v512M224 0v512M192 0v512M160 0v512M128 0v512M96 0v512M64 0v512M32 0v512"/></g><path fill-rule="evenodd" clip-rule="evenodd" fill="#1D1D1B" d="M417.042 166.083c-23.98-24.542-57.125-38.77-91.73-38.77-34.562 0-67.688 14.228-91.687 38.77-52.812 2.46-95 46.188-95 99.584 0 54.958 44.71 99.666 99.688 99.666 5.812 0 11.604-.5 17.25-1.5 20.75 13.542 44.938 20.855 69.75 20.855 24.853 0 49.062-7.313 69.77-20.854 5.708 1 11.46 1.5 17.292 1.5 54.937 0 99.625-44.71 99.625-99.667 0-53.396-42.188-97.125-94.958-99.584zM144 352H16c-8.833 0-16 7.167-16 16s7.167 16 16 16h128c8.833 0 16-7.167 16-16s-7.167-16-16-16zM16 320h64c8.833 0 16-7.167 16-16s-7.167-16-16-16H16c-8.833 0-16 7.167-16 16s7.167 16 16 16zm32-64h64c8.833 0 16-7.167 16-16s-7.167-16-16-16H48c-8.833 0-16 7.167-16 16s7.167 16 16 16z"/></svg>