<svg width="384" height="416" viewBox="0 0 384 416" xmlns="http://www.w3.org/2000/svg"><title>4</title><path d="M208 64c8.833 0 16-7.167 16-16V16c0-8.833-7.167-16-16-16s-16 7.167-16 16v32c0 8.833 7.167 16 16 16zm0 288c-8.833 0-16 7.167-16 16v32c0 8.833 7.167 16 16 16s16-7.167 16-16v-32c0-8.833-7.167-16-16-16zM83.562 309.834L60.937 332.46c-6.25 6.248-6.25 16.373 0 22.623s16.375 6.25 22.625 0l22.625-22.624c6.25-6.272 6.25-16.377 0-22.626-6.25-6.25-16.375-6.272-22.625 0zM64 208c0-8.833-7.167-16-16-16H16c-8.833 0-16 7.167-16 16s7.167 16 16 16h32c8.833 0 16-7.167 16-16zm19.54-101.833c6.252 6.25 16.377 6.25 22.626 0 6.25-6.25 6.25-16.375 0-22.625L83.54 60.917c-6.25-6.25-16.373-6.25-22.624 0-6.25 6.25-6.25 16.375 0 22.625l22.625 22.625zM272 96c-11.188 0-21.812 2.167-32 5.208C229.812 98.166 219.188 96 208 96c-61.75 0-112 50.25-112 112s50.25 112 112 112c11.188 0 21.812-2.166 32-5.21 10.188 3.044 20.812 5.21 32 5.21 61.75 0 112-50.25 112-112S333.75 96 272 96zm-79.77 190.417C155.582 279.084 128 246.79 128 208c0-38.792 27.583-71.083 64.23-78.417C172.333 149.813 160 177.458 160 208s12.334 58.188 32.23 78.417z" fill="#1D1D1B" fill-rule="evenodd"/></svg>