<?xml version="1.0" encoding="UTF-8" standalone="no"?>
<svg width="384px" height="416px" viewBox="0 0 384 416" version="1.1" xmlns="http://www.w3.org/2000/svg" xmlns:xlink="http://www.w3.org/1999/xlink">
    <!-- Generator: Sketch 41.2 (35397) - http://www.bohemiancoding.com/sketch -->
    <title>4</title>
    <desc>Created with Sketch.</desc>
    <defs></defs>
    <g id="Page-1" stroke="none" stroke-width="1" fill="none" fill-rule="evenodd">
        <g id="4" transform="translate(-63.000000, -63.000000)" fill="#1D1D1B">
            <path d="M271,127 C279.833,127 287,119.833 287,111 L287,79 C287,70.167 279.833,63 271,63 C262.167,63 255,70.167 255,79 L255,111 C255,119.833 262.167,127 271,127 Z M271,415 C262.167,415 255,422.167 255,431 L255,463 C255,471.833 262.167,479 271,479 C279.833,479 287,471.833 287,463 L287,431 C287,422.167 279.833,415 271,415 Z M146.562,372.834 L123.937,395.459 C117.687,401.708 117.687,411.833 123.937,418.083 C130.187,424.333 140.312,424.333 146.562,418.083 L169.187,395.459 C175.437,389.188 175.437,379.083 169.187,372.834 C162.938,366.583 152.812,366.562 146.562,372.834 Z M127,271 C127,262.167 119.833,255 111,255 L79,255 C70.167,255 63,262.167 63,271 C63,279.833 70.167,287 79,287 L111,287 C119.833,287 127,279.833 127,271 Z M146.541,169.167 C152.792,175.417 162.917,175.417 169.166,169.167 C175.417,162.917 175.417,152.792 169.166,146.542 L146.541,123.917 C140.291,117.667 130.167,117.667 123.916,123.917 C117.666,130.167 117.666,140.292 123.916,146.542 L146.541,169.167 Z M335,159 C323.812,159 313.188,161.167 303,164.208 C292.812,161.166 282.188,159 271,159 C209.25,159 159,209.25 159,271 C159,332.75 209.25,383 271,383 C282.188,383 292.812,380.834 303,377.791 C313.188,380.834 323.812,383 335,383 C396.75,383 447,332.75 447,271 C447,209.25 396.75,159 335,159 Z M255.229,349.417 C218.583,342.084 191,309.791 191,271 C191,232.208 218.583,199.917 255.229,192.583 C235.334,212.812 223,240.458 223,271 C223,301.542 235.334,329.188 255.229,349.417 Z" id="Shape"></path>
        </g>
    </g>
</svg>