<svg xmlns="http://www.w3.org/2000/svg" width="512" height="512" viewBox="0 0 512 512"><g fill="none" stroke="#A9CCDB" stroke-miterlimit="10"><path d="M0 0h512v512H0zM0 480h512M0 448h512M0 416h512M0 384h512M0 352h512M0 320h512M0 288h512M0 256h512M0 224h512M0 192h512M0 160h512M0 128h512M0 96h512M0 64h512M0 32h512M480 0v512M448 0v512M416 0v512M384 0v512M352 0v512M320 0v512M288 0v512M256 0v512M224 0v512M192 0v512M160 0v512M128 0v512M96 0v512M64 0v512M32 0v512"/></g><path fill="#1D1D1B" d="M488.334 247.417c14.624 18.916 23.666 42.312 23.666 68 0 61.75-50.25 112-112 112-13.688 0-27.084-2.5-39.71-7.333-28.957 25.25-65.748 39.333-104.29 39.333-38.5 0-75.334-14.084-104.29-39.333a110.825 110.825 0 0 1-39.71 7.333c-61.75 0-112-50.25-112-112s50.25-112 112-112c5.312 0 10.562.375 15.792 1.125.52-.73 1.166-1.375 1.708-2.083-.812-4.94-1.5-9.897-1.5-15.042 0-49.167 40-89.146 89.125-89.146 2.416 0 4.812.104 7.188.292 23.125-28.854 58-45.98 95.688-45.98 37.71 0 72.563 17.126 95.69 45.98a90.39 90.39 0 0 1 7.145-.292C472 98.272 512 138.25 512 187.417c0 23.166-9.084 44.104-23.666 60z"/></svg>