<svg xmlns="http://www.w3.org/2000/svg" width="512" height="512" viewBox="0 0 512 512"><g fill="none" stroke="#A9CCDB" stroke-miterlimit="10"><path d="M0 0h512v512H0zM0 480h512M0 448h512M0 416h512M0 384h512M0 352h512M0 320h512M0 288h512M0 256h512M0 224h512M0 192h512M0 160h512M0 128h512M0 96h512M0 64h512M0 32h512M480 0v512M448 0v512M416 0v512M384 0v512M352 0v512M320 0v512M288 0v512M256 0v512M224 0v512M192 0v512M160 0v512M128 0v512M96 0v512M64 0v512M32 0v512"/></g><path fill="#1D1D1B" d="M512 134.833c0-49.146-40-89.124-89.167-89.124-2.396 0-4.77.082-7.146.27C392.562 17.145 357.71 0 320 0c-37.688 0-72.562 17.146-95.688 45.98a91.556 91.556 0 0 0-7.188-.27C168 45.71 128 85.687 128 134.832c0 5.146.688 10.125 1.5 15.042-.542.708-1.188 1.354-1.708 2.083A110.94 110.94 0 0 0 112 150.833c-61.75 0-112 50.25-112 112s50.25 112 112 112c13.688 0 27.084-2.5 39.71-7.333 18.353 16 40.103 26.938 63.206 33.208L192 416l32 32-32 64 96-64-32-32 4.812-9.583c36.75-1.125 71.75-14.73 99.48-38.917A110.804 110.804 0 0 0 400 374.833c61.75 0 112-50.25 112-112 0-25.666-9.042-49.083-23.666-68 14.582-15.875 23.666-36.812 23.666-60z"/></svg>