<svg xmlns="http://www.w3.org/2000/svg" width="512" height="512" viewBox="0 0 512 512"><g fill="none" stroke="#A9CCDB" stroke-miterlimit="10"><path d="M0 0h512v512H0zM0 480h512M0 448h512M0 416h512M0 384h512M0 352h512M0 320h512M0 288h512M0 256h512M0 224h512M0 192h512M0 160h512M0 128h512M0 96h512M0 64h512M0 32h512M480 0v512M448 0v512M416 0v512M384 0v512M352 0v512M320 0v512M288 0v512M256 0v512M224 0v512M192 0v512M160 0v512M128 0v512M96 0v512M64 0v512M32 0v512"/></g><path fill-rule="evenodd" clip-rule="evenodd" fill="#1D1D1B" d="M288 360.875V66.917C288 47.625 273.666 32 256 32c-17.667 0-32 15.625-32 34.917v293.958c-19.042 11.083-32 31.5-32 55.125 0 35.333 28.666 64 64 64 35.333 0 64-28.667 64-64 0-23.624-12.938-44.042-32-55.125z"/></svg>