<svg xmlns="http://www.w3.org/2000/svg" width="512" height="512" viewBox="0 0 512 512"><g fill="none" stroke="#A9CCDB" stroke-miterlimit="10"><path d="M0 0h512v512H0zM0 480h512M0 448h512M0 416h512M0 384h512M0 352h512M0 320h512M0 288h512M0 256h512M0 224h512M0 192h512M0 160h512M0 128h512M0 96h512M0 64h512M0 32h512M480 0v512M448 0v512M416 0v512M384 0v512M352 0v512M320 0v512M288 0v512M256 0v512M224 0v512M192 0v512M160 0v512M128 0v512M96 0v512M64 0v512M32 0v512"/></g><path fill="#1D1D1B" d="M256 0C114.604 0 0 114.604 0 256c0 141.375 114.604 256 256 256 141.375 0 256-114.625 256-256C512 114.604 397.375 0 256 0zm0 448c-105.875 0-192-86.125-192-192S150.125 64 256 64s192 86.125 192 192-86.125 192-192 192zm-96-96l128-64 64-128-128 64-64 128z"/></svg>