<svg xmlns="http://www.w3.org/2000/svg" width="512" height="512" viewBox="0 0 512 512"><g fill="none" stroke="#A9CCDB" stroke-miterlimit="10"><path d="M0 0h512v512H0zM0 480h512M0 448h512M0 416h512M0 384h512M0 352h512M0 320h512M0 288h512M0 256h512M0 224h512M0 192h512M0 160h512M0 128h512M0 96h512M0 64h512M0 32h512M480 0v512M448 0v512M416 0v512M384 0v512M352 0v512M320 0v512M288 0v512M256 0v512M224 0v512M192 0v512M160 0v512M128 0v512M96 0v512M64 0v512M32 0v512"/></g><path fill="#1D1D1B" d="M209.167 176.375c-3.604-3.396-7.792-6.083-12.542-8.062-4.812-1.938-9.938-2.938-15.375-2.938-5.458 0-10.584 1-15.375 2.938-4.75 1.98-8.938 4.667-12.54 8.062-3.585 3.417-6.397 7.417-8.46 12.042-2.042 4.605-3.062 9.48-3.062 14.583 0 5.125 1.02 10 3.062 14.605 2.062 4.604 4.875 8.625 8.46 12.02 3.603 3.417 7.79 6.125 12.54 8.063 4.79 1.98 9.917 2.958 15.375 2.958 5.438 0 10.562-.98 15.375-2.958 4.75-1.938 8.938-4.646 12.542-8.063 3.583-3.395 6.396-7.417 8.416-12.02 2.042-4.605 3.104-9.48 3.104-14.605 0-5.104-1.062-9.98-3.104-14.583a36.826 36.826 0 0 0-8.416-12.042zm-15.355 38.666c-3.438 3.418-7.625 5.126-12.562 5.126s-9.125-1.71-12.562-5.125c-3.396-3.416-5.125-7.416-5.125-12.04 0-4.75 1.73-8.834 5.125-12.146 3.438-3.333 7.625-4.98 12.562-4.98s9.125 1.647 12.562 4.98c3.375 3.312 5.104 7.395 5.104 12.145 0 4.625-1.728 8.625-5.104 12.04zm141.438 96.75c-6.062 1.73-12.083 2.584-18.062 2.584-3.938 0-7.812-.604-11.646-1.79a31.3 31.3 0 0 1-10.5-5.646c-3.166-2.563-5.73-5.834-7.666-9.854-1.96-4-2.958-8.917-2.958-14.71v-51.457c0-5.792 1-10.75 2.958-14.854 1.937-4.083 4.46-7.417 7.54-9.98a27.914 27.914 0 0 1 10.5-5.5c3.918-1.104 7.835-1.666 11.772-1.666 5.98 0 12.124.875 18.437 2.688 6.313 1.79 12.188 5 17.668 9.604l16.896-27.147c-6.855-5.958-14.98-10.312-24.48-13.062-9.46-2.707-19.292-4.082-29.543-4.082a86.09 86.09 0 0 0-24.583 3.584c-8.02 2.396-15.146 5.98-21.375 10.75-6.21 4.792-11.272 10.708-15.084 17.79-3.875 7.085-5.79 15.334-5.79 24.71v66.04c0 9.563 1.978 17.876 5.915 24.96 3.918 7.084 9.042 12.98 15.335 17.666 6.332 4.708 13.48 8.23 21.5 10.625 8.04 2.375 16.228 3.584 24.603 3.584 10.396 0 20.27-1.542 29.688-4.604 9.375-3.083 17.312-7.354 23.812-12.792l-16.646-27.145c-6.126 4.79-12.25 8.02-18.292 9.706z"/></svg>