<svg xmlns="http://www.w3.org/2000/svg" width="512" height="512" viewBox="0 0 512 512"><g fill="none" stroke="#A9CCDB" stroke-miterlimit="10"><path d="M0 0h512v512H0zM0 480h512M0 448h512M0 416h512M0 384h512M0 352h512M0 320h512M0 288h512M0 256h512M0 224h512M0 192h512M0 160h512M0 128h512M0 96h512M0 64h512M0 32h512M480 0v512M448 0v512M416 0v512M384 0v512M352 0v512M320 0v512M288 0v512M256 0v512M224 0v512M192 0v512M160 0v512M128 0v512M96 0v512M64 0v512M32 0v512"/></g><path fill="#1D1D1B" d="M208.53 177.27c-3.603-3.395-7.79-6.083-12.54-8.06-4.812-1.94-9.938-2.94-15.375-2.94-5.46 0-10.584 1-15.375 2.94-4.75 1.978-8.938 4.666-12.542 8.06-3.583 3.417-6.396 7.417-8.46 12.042-2.04 4.605-3.06 9.48-3.06 14.584 0 5.125 1.02 10 3.06 14.604 2.064 4.604 4.877 8.625 8.46 12.02 3.604 3.417 7.792 6.126 12.542 8.063 4.79 1.98 9.916 2.958 15.375 2.958 5.438 0 10.562-.978 15.375-2.957 4.75-1.938 8.938-4.646 12.54-8.062 3.585-3.395 6.397-7.416 8.417-12.02 2.042-4.604 3.105-9.48 3.105-14.604 0-5.104-1.063-9.98-3.105-14.584a36.803 36.803 0 0 0-8.416-12.04zm-15.353 38.667c-3.438 3.417-7.625 5.126-12.562 5.126s-9.125-1.71-12.562-5.126c-3.396-3.416-5.125-7.416-5.125-12.04 0-4.75 1.73-8.834 5.125-12.147 3.438-3.333 7.625-4.98 12.562-4.98s9.125 1.647 12.562 4.98c3.374 3.312 5.104 7.396 5.104 12.146 0 4.625-1.73 8.625-5.103 12.04zm177.645-15.104v-31.5H249.24V345.73h35.063v-71.94h73.98v-31.478h-73.98v-41.48h86.52z"/></svg>