<svg xmlns="http://www.w3.org/2000/svg" width="512" height="512" viewBox="0 0 512 512"><g fill="none" stroke="#A9CCDB" stroke-miterlimit="10"><path d="M0 0h512v512H0zM0 480h512M0 448h512M0 416h512M0 384h512M0 352h512M0 320h512M0 288h512M0 256h512M0 224h512M0 192h512M0 160h512M0 128h512M0 96h512M0 64h512M0 32h512M480 0v512M448 0v512M416 0v512M384 0v512M352 0v512M320 0v512M288 0v512M256 0v512M224 0v512M192 0v512M160 0v512M128 0v512M96 0v512M64 0v512M32 0v512"/></g><path fill="#1D1D1B" d="M495 223h-81.625C405.312 151.208 344.938 95 271 95c-49.812 0-93.75 25.458-119.625 64H47c-8.833 0-16 7.167-16 16s7.167 16 16 16h88.833c-3.624 10.208-5.98 20.896-7.208 32H79c-8.833 0-16 7.167-16 16s7.167 16 16 16h49.625c1.23 11.084 3.584 21.812 7.208 32H49.916C39.46 287 31 294.167 31 303s8.46 16 18.916 16h101.46c25.874 38.562 69.81 64 119.624 64 49.812 0 93.75-25.438 119.624-64h37.46C438.54 319 447 311.833 447 303s-8.46-16-18.916-16h-21.917c3.624-10.188 5.958-20.916 7.208-32H495c8.833 0 16-7.167 16-16s-7.167-16-16-16zm-324.77-32H271c8.833 0 16-7.167 16-16s-7.167-16-16-16h-78.146c20.21-19.73 47.73-32 78.146-32 56.29 0 102.542 41.875 110.375 96h-220.75c1.625-11.312 4.834-22.042 9.604-32zM271 351c-30.417 0-57.938-12.29-78.146-32h156.27c-20.186 19.71-47.707 32-78.124 32zm100.75-64H170.23c-4.77-9.958-7.98-20.688-9.605-32h220.75c-1.625 11.312-4.834 22.042-9.625 32z"/></svg>