<svg xmlns="http://www.w3.org/2000/svg" width="512" height="512" viewBox="0 0 512 512"><g fill="none" stroke="#A9CCDB" stroke-miterlimit="10"><path d="M0 0h512v512H0zM0 480h512M0 448h512M0 416h512M0 384h512M0 352h512M0 320h512M0 288h512M0 256h512M0 224h512M0 192h512M0 160h512M0 128h512M0 96h512M0 64h512M0 32h512M480 0v512M448 0v512M416 0v512M384 0v512M352 0v512M320 0v512M288 0v512M256 0v512M224 0v512M192 0v512M160 0v512M128 0v512M96 0v512M64 0v512M32 0v512"/></g><path fill="#1D1D1B" d="M382.872 292.25l-32.625-18.834c1.042-5.666 1.75-11.458 1.75-17.416 0-5.98-.708-11.792-1.792-17.458l32.625-18.854c15.333-8.875 20.542-28.438 11.73-43.688-8.855-15.312-28.376-20.562-43.69-11.75l-32.937 19.02c-8.812-7.5-18.854-13.416-29.938-17.353V128c0-17.667-14.312-32-32-32-17.666 0-32 14.333-32 32v37.896c-11.083 3.938-21.125 9.855-29.937 17.354l-32.876-18.98c-15.312-8.832-34.896-3.603-43.75 11.71-8.812 15.29-3.56 34.853 11.75 43.687l32.563 18.813c-1.062 5.688-1.75 11.52-1.75 17.52 0 5.96.687 11.772 1.75 17.44l-32.584 18.81c-15.333 8.835-20.583 28.44-11.728 43.75 8.81 15.25 28.395 20.5 43.73 11.69l32.832-18.98c8.813 7.5 18.875 13.458 30 17.417V384c0 17.688 14.334 32 32 32 17.688 0 32-14.312 32-32v-37.917c11.125-3.958 21.188-9.875 29.958-17.395l32.917 19c15.31 8.81 34.875 3.56 43.687-11.69 8.857-15.31 3.628-34.873-11.685-43.748zM223.997 256c0-17.667 14.312-32 32-32 17.667 0 32 14.333 32 32 0 17.666-14.333 32-32 32-17.687 0-32-14.334-32-32z"/></svg>