<svg width="58" height="58" viewBox="0 0 58 58" xmlns="http://www.w3.org/2000/svg"><title>58 - Settings</title><path d="M56.565 28.256l-17.85-17.82c-.29-.29-.638-.436-1.045-.436-.406 0-.754.145-1.045.435-.29.29-.435.64-.435 1.045 0 .407.145.755.435 1.045L51.92 27.82H3.51a1.46 1.46 0 0 0-1.075.436A1.46 1.46 0 0 0 2 29.33c0 .406.145.754.435 1.045.29.29.65.435 1.074.435h48.41L36.626 46.106c-.29.29-.435.638-.435 1.044 0 .407.145.755.435 1.045.136.155.295.266.48.334a1.625 1.625 0 0 0 1.13 0c.185-.07.345-.18.48-.335l17.85-17.82c.29-.29.435-.644.435-1.06 0-.416-.145-.77-.435-1.06z" fill="#D1D7BF" fill-rule="evenodd"/></svg>