<svg width="416" height="416" viewBox="0 0 416 416" xmlns="http://www.w3.org/2000/svg"><title>clear-day</title><path d="M208 96c-61.75 0-112 50.25-112 112s50.25 112 112 112 112-50.25 112-112S269.75 96 208 96zm0 192c-44.188 0-80-35.812-80-80s35.812-80 80-80 80 35.812 80 80-35.812 80-80 80zm0-224c8.833 0 16-7.167 16-16V16c0-8.833-7.167-16-16-16s-16 7.167-16 16v32c0 8.833 7.167 16 16 16zm0 288c-8.833 0-16 7.167-16 16v32c0 8.833 7.167 16 16 16s16-7.167 16-16v-32c0-8.833-7.167-16-16-16zm124.438-245.833l22.625-22.625c6.25-6.25 6.25-16.375 0-22.625s-16.375-6.25-22.625 0l-22.625 22.625c-6.25 6.25-6.25 16.375 0 22.625s16.375 6.25 22.625 0zM83.562 309.834L60.937 332.46c-6.25 6.248-6.25 16.373 0 22.623s16.375 6.25 22.625 0l22.625-22.624c6.25-6.272 6.25-16.377 0-22.626-6.25-6.25-16.375-6.272-22.625 0zM64 208c0-8.833-7.167-16-16-16H16c-8.833 0-16 7.167-16 16s7.167 16 16 16h32c8.833 0 16-7.167 16-16zm336-16h-32c-8.833 0-16 7.167-16 16s7.167 16 16 16h32c8.833 0 16-7.167 16-16s-7.167-16-16-16zM83.54 106.167c6.252 6.25 16.377 6.25 22.626 0 6.25-6.25 6.25-16.375 0-22.625L83.54 60.917c-6.25-6.25-16.373-6.25-22.624 0-6.25 6.25-6.25 16.375 0 22.625l22.625 22.625zm248.92 203.645c-6.272-6.25-16.377-6.25-22.626 0-6.25 6.25-6.27 16.375 0 22.625l22.625 22.625c6.248 6.25 16.373 6.25 22.623 0s6.25-16.374 0-22.625l-22.624-22.625z" fill="#D1D7BF" fill-rule="evenodd"/></svg>