<?xml version="1.0" encoding="UTF-8" standalone="no"?>
<svg width="512px" height="320px" viewBox="0 0 512 320" version="1.1" xmlns="http://www.w3.org/2000/svg" xmlns:xlink="http://www.w3.org/1999/xlink">
    <!-- Generator: Sketch 41.2 (35397) - http://www.bohemiancoding.com/sketch -->
    <title>cloudy</title>
    <desc>Created with Sketch.</desc>
    <defs></defs>
    <g id="Page-1" stroke="none" stroke-width="1" fill="none" fill-rule="evenodd">
        <g id="cloudy" transform="translate(0.000000, -96.000000)" fill="#1D1D1B">
            <path d="M400,160 C394.688,160 389.438,160.375 384.208,161.125 C354.334,120.417 307.188,96 256,96 C204.812,96 157.688,120.417 127.792,161.125 C122.562,160.375 117.312,160 112,160 C50.25,160 0,210.25 0,272 C0,333.75 50.25,384 112,384 C125.688,384 139.084,381.5 151.709,376.667 C180.666,401.917 217.5,416 256,416 C294.542,416 331.333,401.917 360.291,376.667 C372.916,381.5 386.312,384 400,384 C461.75,384 512,333.75 512,272 C512,210.25 461.75,160 400,160 Z M400,352 C382.875,352 367.084,346.5 354.062,337.333 C330.584,365.624 295.624,384 256,384 C216.375,384 181.416,365.624 157.938,337.333 C144.938,346.5 129.125,352 112,352 C67.812,352 32,316.188 32,272 C32,227.812 67.812,192 112,192 C122.812,192 133.062,194.208 142.438,198.083 C163.667,156.667 206.291,128 256,128 C305.709,128 348.334,156.667 369.541,198.083 C378.938,194.208 389.209,192 400,192 C444.188,192 480,227.812 480,272 C480,316.188 444.188,352 400,352 Z" id="Shape"></path>
        </g>
    </g>
</svg>