<svg width="320" height="224" viewBox="0 0 320 224" xmlns="http://www.w3.org/2000/svg"><title>fog</title><path d="M16 32h288c8.833 0 16-7.167 16-16s-7.167-16-16-16H16C7.167 0 0 7.167 0 16s7.167 16 16 16zm288 32H16C7.167 64 0 71.167 0 80s7.167 16 16 16h288c8.833 0 16-7.167 16-16s-7.167-16-16-16zm0 64H16c-8.833 0-16 7.167-16 16s7.167 16 16 16h288c8.833 0 16-7.167 16-16s-7.167-16-16-16zm0 64H16c-8.833 0-16 7.167-16 16s7.167 16 16 16h288c8.833 0 16-7.167 16-16s-7.167-16-16-16z" fill="#D1D7BF" fill-rule="evenodd"/></svg>