<?xml version="1.0" encoding="UTF-8" standalone="no"?>
<svg width="320px" height="224px" viewBox="0 0 320 224" version="1.1" xmlns="http://www.w3.org/2000/svg" xmlns:xlink="http://www.w3.org/1999/xlink">
    <!-- Generator: Sketch 41.2 (35397) - http://www.bohemiancoding.com/sketch -->
    <title>fog</title>
    <desc>Created with Sketch.</desc>
    <defs></defs>
    <g id="Page-1" stroke="none" stroke-width="1" fill="none" fill-rule="evenodd">
        <g id="fog" transform="translate(-96.000000, -128.000000)" fill="#1D1D1B">
            <path d="M112,160 L400,160 C408.833,160 416,152.833 416,144 C416,135.167 408.833,128 400,128 L112,128 C103.167,128 96,135.167 96,144 C96,152.833 103.167,160 112,160 Z M400,192 L112,192 C103.167,192 96,199.167 96,208 C96,216.833 103.167,224 112,224 L400,224 C408.833,224 416,216.833 416,208 C416,199.167 408.833,192 400,192 Z M400,256 L112,256 C103.167,256 96,263.167 96,272 C96,280.833 103.167,288 112,288 L400,288 C408.833,288 416,280.833 416,272 C416,263.167 408.833,256 400,256 Z M400,320 L112,320 C103.167,320 96,327.167 96,336 C96,344.833 103.167,352 112,352 L400,352 C408.833,352 416,344.833 416,336 C416,327.167 408.833,320 400,320 Z" id="Shape"></path>
        </g>
    </g>
</svg>