<svg width="512" height="474" viewBox="0 0 512 474" xmlns="http://www.w3.org/2000/svg"><title>partly-cloudy-night</title><path d="M435.062 224.166c4.875-3.625 9.812-7.188 14.23-11.604 13.207-13.23 23.27-29.333 29.79-47.854a15.87 15.87 0 0 0-3.77-16.625 15.92 15.92 0 0 0-16.624-3.792c-35.396 12.5-73.688 4-99.896-22.25-26.25-26.25-34.792-64.52-22.25-99.895A16.007 16.007 0 0 0 332.75 5.5c-4.333-4.334-10.812-5.835-16.625-3.792C297.583 8.29 281.5 18.33 268.29 31.54c-33.54 33.5-43.978 81-32.478 123.792-43.25 5.52-82.125 28.5-108.02 63.793A110.94 110.94 0 0 0 111.998 218C50.25 218 0 268.25 0 330s50.25 112 112 112c13.687 0 27.083-2.5 39.708-7.334 28.957 25.25 65.79 39.334 104.29 39.334 38.543 0 75.334-14.084 104.292-39.334A110.805 110.805 0 0 0 400 442c61.75 0 112-50.25 112-112 0-49.438-32.417-91.02-76.938-105.834zm-144.146-170c2.542-2.583 5.27-4.98 8.146-7.23-2.25 35.98 10.73 71.376 37.104 97.73 26.376 26.375 61.77 39.333 97.75 37.104-13.79 17.584-32.79 28.52-53.125 33.188-27.374-34.75-67.603-56.625-111.957-60.187-12.27-33.958-5.083-73.437 22.083-100.604zM400 410c-17.125 0-32.916-5.5-45.938-14.667C330.582 423.625 295.624 442 256 442c-39.625 0-74.584-18.375-98.062-46.667C144.938 404.5 129.126 410 112 410c-44.188 0-80-35.812-80-80 0-44.187 35.812-80 80-80 10.812 0 21.062 2.19 30.438 6.063 20.188-39.355 59.75-66.896 106.312-69.543 2.438-.145 4.812-.52 7.25-.52 12.916 0 25.312 2.02 37 5.582 15.79 4.834 30.188 12.708 42.688 22.854 11.938 9.688 21.938 21.562 29.812 34.896 1.333 2.25 2.834 4.375 4.04 6.73 9.397-3.876 19.67-6.063 30.46-6.063 44.188 0 80 35.81 80 80 0 44.187-35.812 80-80 80z" fill="#272727" fill-rule="evenodd"/></svg>