<svg width="512" height="512" viewBox="0 0 512 512" xmlns="http://www.w3.org/2000/svg"><title>snow</title><path d="M326.042 443.688l-18-10.376c.542-3.124.958-6.31.958-9.624 0-3.312-.416-6.5-1-9.625l18.042-10.396c8.417-4.917 11.29-15.73 6.458-24.104-4.876-8.48-15.667-11.375-24.125-6.5l-18.188 10.5c-4.876-4.146-10.375-7.396-16.5-9.604v-20.897c0-9.77-7.938-17.688-17.688-17.688s-17.667 7.917-17.667 17.688v20.875c-6.126 2.188-11.646 5.48-16.52 9.625l-18.147-10.5c-8.48-4.875-19.292-2-24.167 6.48-4.876 8.416-1.94 19.25 6.5 24.125l17.958 10.375c-.584 3.146-.96 6.334-.96 9.646 0 3.312.376 6.5.96 9.623L186 443.688c-8.46 4.875-11.375 15.75-6.5 24.188 4.875 8.438 15.688 11.312 24.125 6.438l18.167-10.438c4.874 4.125 10.396 7.375 16.542 9.562v20.938c0 9.75 7.916 17.624 17.666 17.624s17.688-7.875 17.688-17.624v-20.938a51.698 51.698 0 0 0 16.52-9.625l18.168 10.5c8.458 4.875 19.25 2 24.125-6.438 4.875-8.437 2-19.25-6.458-24.187zM256 441.375c-9.75 0-17.688-7.938-17.688-17.688S246.25 406.04 256 406.04s17.667 7.897 17.667 17.647c0 9.75-7.917 17.688-17.667 17.688zm218.166-45.125l-12.083-3.208c-.29-3.833-1.208-7.48-2.896-10.98l8.77-8.77c4.126-4.125 4.105-10.792 0-14.854-4.082-4.104-10.707-4.125-14.832 0l-8.79 8.75c-3.46-1.625-7.147-2.562-10.96-2.875l-3.21-12.062c-1.498-5.582-7.25-8.937-12.873-7.437-5.604 1.52-8.875 7.27-7.417 12.875l3.21 11.896a33.922 33.922 0 0 0-4.5 3.667c-1.376 1.418-2.543 2.917-3.627 4.46l-11.896-3.21c-5.604-1.498-11.396 1.877-12.896 7.44-1.5 5.624 1.876 11.353 7.417 12.874l12 3.23c.334 3.77 1.292 7.457 2.98 10.958l-8.813 8.812c-4.083 4.104-4.062 10.73.042 14.812 4.083 4.083 10.708 4.125 14.792.042l8.832-8.833c3.46 1.707 7.168 2.666 11 2.957l3.167 12.02c1.542 5.605 7.25 8.94 12.876 7.44 5.582-1.5 8.956-7.25 7.457-12.918l-3.21-11.896c1.5-1.062 3.043-2.25 4.46-3.625 1.375-1.396 2.542-2.938 3.624-4.48l11.918 3.21c5.604 1.5 11.375-1.854 12.854-7.417 1.5-5.585-1.812-11.334-7.396-12.876zm-35.854 6.688a10.506 10.506 0 0 1-14.875 0c-4.062-4.062-4.104-10.73 0-14.854 4.104-4.083 10.77-4.083 14.875 0 4.063 4.104 4.063 10.79 0 14.854zM118.938 342.5l-11.875 3.188c-1.104-1.5-2.25-3.02-3.646-4.438a33.096 33.096 0 0 0-4.48-3.625l3.19-11.938c1.5-5.604-1.835-11.375-7.376-12.854-5.624-1.5-11.374 1.834-12.874 7.417l-3.25 12.062c-3.812.312-7.458 1.25-10.938 2.896l-8.812-8.77c-4.125-4.126-10.75-4.105-14.834 0a10.5 10.5 0 0 0 0 14.853l8.77 8.772a31.323 31.323 0 0 0-2.895 10.98l-12.042 3.207c-5.625 1.54-8.96 7.25-7.458 12.874 1.52 5.583 7.27 8.875 12.896 7.417l11.875-3.23c1.062 1.605 2.25 3.106 3.688 4.502a27.915 27.915 0 0 0 4.438 3.625l-3.188 11.896c-1.5 5.625 1.834 11.417 7.416 12.917 5.626 1.5 11.334-1.833 12.834-7.438l3.25-12c3.812-.312 7.5-1.27 11-2.938l8.79 8.792c4.085 4.124 10.71 4.04 14.835-.042 4.063-4.062 4.126-10.708 0-14.812L109.44 377a29.47 29.47 0 0 0 2.937-11l12.062-3.19c5.56-1.52 8.895-7.25 7.395-12.874-1.5-5.56-7.25-8.894-12.897-7.436zm-30.376 28.458c-4.104 4.104-10.75 4.104-14.875 0-4.062-4.083-4.062-10.77 0-14.833 4.125-4.083 10.77-4.083 14.875 0 4.104 4.083 4.063 10.75 0 14.833zM512 176c0-61.75-50.25-112-112-112-5.312 0-10.562.375-15.792 1.125C354.334 24.417 307.188 0 256 0s-98.312 24.417-128.208 65.125C122.562 64.375 117.312 64 112 64 50.25 64 0 114.25 0 176s50.25 112 112 112c13.688 0 27.084-2.5 39.71-7.333C180.665 305.917 217.5 320 256 320c38.542 0 75.333-14.083 104.29-39.333A110.825 110.825 0 0 0 400 288c61.75 0 112-50.25 112-112zm-157.938 65.333C330.584 269.625 295.624 288 256 288c-39.625 0-74.584-18.375-98.062-46.667C144.938 250.5 129.125 256 112 256c-44.188 0-80-35.812-80-80s35.812-80 80-80c10.812 0 21.062 2.208 30.438 6.083C163.668 60.667 206.29 32 256 32c49.71 0 92.334 28.667 113.54 70.083C378.94 98.208 389.21 96 400 96c44.188 0 80 35.812 80 80s-35.812 80-80 80c-17.125 0-32.916-5.5-45.938-14.667z" fill="#272727" fill-rule="evenodd"/></svg>