<svg width="512" height="512" viewBox="0 0 512 512" xmlns="http://www.w3.org/2000/svg"><title>thunderstorm</title><path d="M192 384l32 32-32 96 96-96-32-32 32-64-96 64zm320-249.167c0-49.146-40-89.124-89.167-89.124-2.396 0-4.77.082-7.146.27C392.562 17.145 357.71 0 320 0c-37.688 0-72.562 17.146-95.688 45.98a91.556 91.556 0 0 0-7.188-.27C168 45.71 128 85.687 128 134.832c0 5.146.688 10.125 1.5 15.042-.542.708-1.188 1.354-1.708 2.083A110.94 110.94 0 0 0 112 150.833c-61.75 0-112 50.25-112 112s50.25 112 112 112c13.688 0 27.084-2.5 39.71-7.333 1.103.96 2.415 1.625 3.54 2.562l28.312-18.875c-9.438-6.688-18.25-14.125-25.625-23-13 9.146-28.812 14.646-45.938 14.646-44.19 0-80-35.79-80-80 0-44.167 35.81-80 80-80 10.81 0 21.06 2.21 30.437 6.083.562-1.083 1.25-2 1.812-3.042a130.207 130.207 0 0 1 20.665-28.042c23.084-23.896 55.167-39 91.084-39 49.708 0 92.333 28.667 113.54 70.083 5.646-2.333 11.668-3.833 17.875-4.833l12.584-1.25c12.333 0 23.874 3.042 34.31 8 11.313 5.417 21.022 13.375 28.647 23.208 10.5 13.52 17.042 30.334 17.042 48.792 0 44.21-35.813 80-80 80-17.126 0-32.917-5.5-45.94-14.646-14 16.875-32.437 29.562-53.145 37.562l-5.98 11.938 18.25 18.25c17.063-6.646 33.022-16.188 47.105-28.438A110.804 110.804 0 0 0 400 374.83c61.75 0 112-50.248 112-112 0-25.665-9.043-49.082-23.667-68C502.916 178.96 512 158.02 512 134.834zm-46.438 37.625c-18.48-13.438-41-21.625-65.562-21.625-5.312 0-10.562.375-15.792 1.125C354.334 111.27 307.188 86.833 256 86.833c-34.125 0-66.312 11.062-92.938 30.354 7.48-22.853 28.73-39.478 54.062-39.478a56.58 56.58 0 0 1 21.75 4.332C254.062 52.458 284.5 32 320 32c35.5 0 65.958 20.458 81.084 50.042 6.73-2.77 14.083-4.333 21.75-4.333 31.583 0 57.166 25.582 57.166 57.123 0 14.5-5.562 27.563-14.438 37.625z" fill="#D1D7BF" fill-rule="evenodd"/></svg>