<svg width="416" height="288" viewBox="0 0 416 288" xmlns="http://www.w3.org/2000/svg"><title>wind</title><path d="M368 64c-26.5 0-48 21.5-48 48 0 5.646 1.167 10.958 2.938 16H16c-8.833 0-16 7.167-16 16s7.167 16 16 16h352c26.5 0 48-21.5 48-48s-21.5-48-48-48zM16 96h192c26.5 0 48-21.5 48-48S234.5 0 208 0s-48 21.5-48 48c0 5.646 1.167 10.958 2.938 16H16C7.167 64 0 71.167 0 80s7.167 16 16 16zm256 96c-.938 0-1.834.208-2.79.29-.626-.04-1.147-.29-1.772-.29H20.584C9.21 192 0 199.167 0 208s9.21 16 20.584 16h206.354c-1.77 5.042-2.938 10.376-2.938 16 0 26.5 21.5 48 48 48s48-21.5 48-48-21.5-48-48-48z" fill="#272727" fill-rule="evenodd"/></svg>